<svg viewBox="0 0 14 12" style="background-color:#ffffff00" xmlns="http://www.w3.org/2000/svg" width="14" height="12"><path d="M14 1.222c-.53.228-1.668 1.176-2.264 1.248.608-.356 1.649-1.713 1.868-2.383a5.95 5.95 0 0 1-1.873.696 2.983 2.983 0 0 0-2.153-.91c-1.629 0-2.947 1.286-2.947 2.872 0 .225.024.444.076.654A8.432 8.432 0 0 1 .629.4 2.811 2.811 0 0 0 .23 1.84c0 .996 1.947 2.388 2.739 2.903C2.485 4.732.6 4.09.206 3.874v.036c0 1.392 2.562 2.724 3.911 2.988-.246.065-2.054-.073-2.322-.073a2.82 2.82 0 0 1-.554-.054c.374 1.141 1.464 1.971 2.756 1.995A6.018 6.018 0 0 1-.37 9.954a8.429 8.429 0 0 0 4.516 1.298c5.426 0 8.392-4.377 8.392-8.172 0-.125-.003-.249-.009-.37A5.976 5.976 0 0 0 14 1.222z" fill="#fff"/></svg>