<svg viewBox="0 0 16 16" style="background-color:#ffffff00" xmlns="http://www.w3.org/2000/svg" width="16" height="16"><path d="M15.621 13.763l-3.678-3.73c.625-1.008.987-2.2.987-3.48C12.93 2.934 10.036 0 6.465 0 2.895 0 0 2.934 0 6.554s2.894 6.553 6.465 6.553a6.376 6.376 0 0 0 3.693-1.175l3.634 3.685a1.28 1.28 0 0 0 1.83 0 1.324 1.324 0 0 0 0-1.854zm-9.156-2.78c-2.413 0-4.37-1.982-4.37-4.43 0-2.446 1.957-4.43 4.37-4.43 2.414 0 4.37 1.984 4.37 4.43 0 2.448-1.957 4.43-4.37 4.43z" fill="#fff"/></svg>