<svg xmlns="http://www.w3.org/2000/svg" width="354.871" height="71.545" viewBox="0 0 354.871 71.545"><path fill-rule="evenodd" clip-rule="evenodd" fill="#2A343E" d="M0 69.381c0 1.482.359 1.848 1.83 1.854h9.883c1.471-.007 1.838-.349 1.838-1.806V2.115c0-1.31-.385-1.699-1.676-1.699H1.992C.283.417 0 .699 0 2.434v66.947z"/><path fill-rule="evenodd" clip-rule="evenodd" fill="#F00843" d="M322.562 19.756c2.738-.129 5.301-.299 7.893-.371 3.645-.098 7.305-.098 10.943.518 6.68 1.142 10.648 4.877 12.18 11.5.793 3.402 1.127 6.853 1.215 10.328.162 5.354.162 10.723-.869 16.029-.701 3.643-1.949 7.027-4.902 9.531-2.189 1.863-4.814 2.77-7.584 3.336-3.641.737-7.338.932-11.006.778-4.359-.146-8.699-.452-13.053-.802-2.178-.17-4.33-.576-6.49-.898-1.156-.178-1.662-.777-1.814-1.969a8.066 8.066 0 0 1-.074-1.086c-.012-21.316-.012-42.633-.012-63.958 0-.235 0-.479.012-.739.074-1.496.34-1.756 1.889-1.756h9.697c1.698 0 1.959.243 1.977 1.944v17.615zm.031 39.379c4.254.502 8.432.938 12.631.293 2.252-.348 4.082-1.467 4.912-3.709.402-1.109.734-2.293.773-3.459.152-3.994.188-7.971.162-11.963 0-1.176-.201-2.365-.461-3.517-.816-3.621-2.664-5.272-6.387-5.458-3.746-.186-7.494-.155-11.246-.204-.117 0-.225.049-.385.082v27.935z"/><path fill-rule="evenodd" clip-rule="evenodd" fill="#2A343E" d="M153.11 40.905c0-1.686.191-3.281-.024-4.836-.371-2.519-2.32-4.123-5.189-4.486a31.026 31.026 0 0 0-3.904-.26c-5.002-.025-10.012-.008-15.002-.008-2.106 0-2.182-.089-2.182-2.146 0-2.219.031-4.438-.01-6.666-.011-.947.41-1.385 1.305-1.547 7.598-1.41 15.256-1.668 22.934-1.06 3.197.25 6.31.914 9.211 2.396 3.71 1.897 5.691 5.006 6.244 9.072.216 1.524.295 3.094.295 4.641.019 10.027.009 20.07.009 30.088 0 .203 0 .381-.004.559-.062 2.262-.761 2.924-2.986 3.371-6.48 1.27-13.029 1.668-19.639 1.715-3.724.018-7.492-.047-11.183-.801-5.164-1.053-8.457-4.008-9.494-9.281-.812-4.123-.876-8.221.351-12.287 1.264-4.203 4.246-6.609 8.389-7.5 2.535-.551 5.184-.816 7.783-.922 4.049-.146 8.104-.033 12.17-.041h.926zm.078 8.974c-4.244 0-8.443-.139-12.635.023-2.539.105-3.799 1.465-4.123 3.943-.146.98-.051 2.018.067 3.006.257 1.91 1.396 3.084 3.265 3.449 1.334.252 2.703.389 4.069.414 3.136.064 6.265-.139 9.357-.883v-9.952zM96.529 31.413c-2.24.08-4.369.623-5.727 2.648-1 1.442-1.337 3.133-1.49 4.834-.4 4.504-.429 9.006.012 13.502.191 1.984.576 3.953 2.006 5.475 1.412 1.557 3.33 2.008 5.295 2.041 5.238.105 10.476.074 15.726.121.307 0 .623-.006.91 0 1.588.041 1.913.373 1.928 1.961.014 2.098.014 4.213-.008 6.309-.015 1.531-.443 1.969-1.931 2.244-6.241 1.158-12.537 1.361-18.85 1.086-3.775-.195-7.525-.615-10.975-2.342-2.834-1.426-4.722-3.668-5.871-6.584-1.382-3.572-1.875-7.322-1.914-11.08-.056-5.36.063-10.738.334-16.076.155-2.916.887-5.768 2.246-8.399 1.463-2.861 3.784-4.707 6.739-5.824 2.978-1.109 6.091-1.482 9.222-1.619 5.332-.252 10.655-.131 15.963.525 1.192.147 2.348.348 3.518.551.916.154 1.478.682 1.484 1.67.012 2.453.028 4.932.012 7.402 0 .916-.51 1.409-1.426 1.409h-8.877s-5.542.047-8.326.146"/><path fill-rule="evenodd" clip-rule="evenodd" fill="#F00843" d="M269.12 50.065c.309 1.871.453 3.564.863 5.223.656 2.674 2.635 3.889 5.238 4.172 1.73.193 3.471.275 5.205.283 4.907.033 9.799.008 14.727.008 1.783 0 2.063.277 2.063 2.074 0 2.162.012 4.324 0 6.496-.016 1.432-.287 1.707-1.713 1.951-7.098 1.248-14.242 1.313-21.41 1.061-3.102-.104-6.189-.557-9.104-1.699-4.486-1.758-6.945-5.25-8.123-9.754-.857-3.223-1.256-6.527-1.256-9.846 0-4.748.104-9.502.363-14.248a22.638 22.638 0 0 1 1.977-8.01c1.893-4.156 5.25-6.463 9.576-7.435 6.004-1.321 12.099-1.305 18.168-.575a26.4 26.4 0 0 1 6.092 1.45c4.211 1.554 6.496 4.916 7.689 9.103 1.024 3.629 1.268 7.361 1.439 11.104.07 2.146.039 4.277.027 6.406-.012 1.474-.567 2.051-2.018 2.162-.631.051-1.271.074-1.91.074H269.12zm18.359-8.908c-.273-1.953-.443-3.799-.846-5.605-.42-1.887-1.623-3.297-3.527-3.864-3.133-.947-6.297-.875-9.441-.015-1.168.322-2.156 1.004-2.836 2.023-1.49 2.27-1.547 4.836-1.588 7.461h18.238z"/><path fill-rule="evenodd" clip-rule="evenodd" fill="#2A343E" d="M67.846 42.901c-.067-3.857-.284-7.915-1.33-11.895-1.147-4.358-3.502-7.742-7.795-9.508-2.391-.988-4.94-1.531-7.524-1.66-3.564-.154-7.127-.234-10.691-.178-3.197.057-6.363.5-9.397 1.604-3.068 1.109-5.459 3.027-6.988 5.937-1.754 3.328-2.383 6.955-2.582 10.641-.209 4.229-.293 8.473-.146 12.699.091 2.957.544 5.922 1.085 8.854.493 2.779 1.655 5.346 3.655 7.418 2.543 2.617 5.818 3.678 9.304 4.236 4.493.746 9.038.729 13.577.51 3.066-.129 6.125-.518 9.023-1.604 2.334-.842 4.328-2.178 5.854-4.178 1.652-2.162 2.474-4.658 3.009-7.25.754-3.613.912-7.244.957-11.121l-.011-4.505zM54.373 47.5c-.166 2.117-.305 4.381-.678 6.605-.599 3.555-2.248 5.037-5.843 5.629a20.376 20.376 0 0 1-7.18-.088c-3.047-.592-4.66-2.391-5.235-5.67-.74-4.195-.666-8.424-.46-12.66a34.6 34.6 0 0 1 .412-3.717c.67-3.979 2.257-5.702 6.291-6.148a26.577 26.577 0 0 1 6.9.172c3.178.494 4.83 2.533 5.297 6.211.277 2.229.375 4.479.539 6.92l-.043 2.746z"/><path fill="#2A343E" d="M186.634 21.612c-.271-1.084-.447-1.551-1.351-1.605-.033-.002-.076-.002-.113-.002-.043-.002-.104-.002-.155-.002-1.83-.014-7.547-.008-10.123-.008-.379.002-.692.002-.91.002h-.014a6.94 6.94 0 0 0-.434.012l-.078.005-.004.001a2.254 2.254 0 0 0-.114.011h-.003l-.017.002a2.372 2.372 0 0 0-.2.032l-.041.009-.006.002-.025.007-.013.003-.029.009a.826.826 0 0 0-.253.137l-.004.003-.015.012a.894.894 0 0 0-.089.085v.001a.502.502 0 0 0-.047.064l-.001.001a.836.836 0 0 0-.075.134v.002h-.001l-.006.017a.773.773 0 0 0-.05.185v.005a1.753 1.753 0 0 0-.017.169l-.001.008v.008c-.002.036-.006.081-.004.12v.009c0 .136.012.292.041.457a5.327 5.327 0 0 0 .159.726c.62 2.29 3.832 13.954 6.811 24.679v.001c.019.057.034.113.049.169 2.649 9.534 5.103 18.401 5.371 19.214.91 2.757 2.857 5.029 5.812 5.051.012-.035 2.188-7.924 4.803-17.415-3.8-13.793-8.52-30.966-8.853-32.32m32.11-.262a8.03 8.03 0 0 0-.104-.38 2.35 2.35 0 0 0-.204-.495l-.032-.052-.007-.009-.002-.003a1.11 1.11 0 0 0-.066-.084c.018.02.032.042.047.064l.001.002a.765.765 0 0 1 .075.134v.001l.007.017.001.003a.77.77 0 0 1 .047.17l.002.013.001.005c.01.075.015.14.017.169l.001.008v.007c.002.037.005.081.004.12v.009c0 .137-.012.293-.041.457a5.345 5.345 0 0 1-.158.723v.002l-.001.002c-.615 2.275-3.79 13.802-6.753 24.468.021.069.039.141.06.211l.048.17c2.648 9.533 5.102 18.399 5.372 19.213.909 2.757 2.856 5.029 5.81 5.05.007-.021 1.012-3.657 2.474-8.956.576-2.099 1.225-4.455 1.912-6.939l.407-1.481c-3.722-13.41-8.349-30.313-8.918-32.619"/><path fill="#F00843" d="M250.713 20.92l-.001-.007v-.009a2.908 2.908 0 0 0-.017-.169l-.001-.004-.003-.014a.762.762 0 0 0-.047-.172l-.007-.017-.001-.001a.735.735 0 0 0-.074-.135l-.001-.001c-.015-.022-.03-.044-.047-.064h-.001a.726.726 0 0 0-.089-.086l-.014-.012-.004-.003a.814.814 0 0 0-.254-.136h.001-.001l-.028-.009a.066.066 0 0 0-.015-.004l-.024-.007-.006-.001-.04-.009a2.074 2.074 0 0 0-.218-.034l-.003-.001-.113-.011h-.005l-.077-.006a7.008 7.008 0 0 0-.436-.012h-.013c-.219 0-.531 0-.91-.002-2.577 0-8.293-.006-10.123.008-.051 0-.113 0-.157.002-.036 0-.079 0-.112.002-.902.055-1.078.521-1.35 1.605-.334 1.355-5.062 18.558-8.862 32.356l-.408 1.48-1.913 6.94a5513.25 5513.25 0 0 1-2.473 8.956h9.567c2.977 0 4.938-2.28 5.852-5.05.27-.813 2.723-9.68 5.371-19.213.016-.057.031-.113.049-.17a7368.25 7368.25 0 0 0 6.812-24.679l.001-.003v-.001c.07-.219.123-.505.158-.723a2.65 2.65 0 0 0 .041-.457v-.009c.001-.037-.002-.081-.004-.118m-32.186 0l-.001-.007v-.009a2.908 2.908 0 0 0-.017-.169l-.001-.004-.002-.014a.82.82 0 0 0-.047-.172l-.008-.017-.001-.001a.796.796 0 0 0-.073-.135l-.001-.001c-.016-.022-.031-.044-.047-.064h-.001a.815.815 0 0 0-.09-.086l-.014-.012-.004-.003a.814.814 0 0 0-.254-.136c-.009-.004-.02-.006-.028-.009a.074.074 0 0 0-.014-.004l-.025-.007-.006-.001-.04-.009a2.026 2.026 0 0 0-.218-.034l-.003-.001-.113-.011h-.005l-.077-.006a6.974 6.974 0 0 0-.435-.012h-.014c-.219 0-.53 0-.909-.002-2.577 0-8.293-.006-10.123.008-.052 0-.114 0-.157.002-.037 0-.08 0-.113.002-.901.055-1.078.521-1.349 1.605-.333 1.354-5.055 18.526-8.854 32.318-2.613 9.491-4.792 17.382-4.804 17.415h9.609c2.952-.021 4.899-2.294 5.81-5.05.271-.813 2.723-9.68 5.371-19.213l.049-.17a7203.462 7203.462 0 0 0 6.813-24.679l.001-.002v-.002c.069-.219.123-.505.157-.723a2.65 2.65 0 0 0 .041-.457v-.009c.002-.038-.001-.082-.003-.119"/></svg>