<svg viewBox="0 0 210 47" style="background-color:#ffffff00" xmlns="http://www.w3.org/2000/svg" width="210" height="47"><path d="M202.277 39.092c-3.93 4.807-10.393 5.978-16.288 6.277h-29.86c-4.384-.166-8.327-.332-11.898-3.792-.406 2.294-3.506 3.758-6.101 3.792H65.736c-3.168.034-7.955-.563-10.617-3.359-3.066 2.96-14.324 3.359-16.448 3.393H22.089c-7.583-.068-13.784-1.431-18.065-8.184C1.9 33.226 1.733 29.7 2.475 25.375c1.01-5.922 3.876-17.7 3.876-17.7 1.449-3.86 4.818-5.79 10.177-5.756h8.729c5.494 0 5.764 2.827 5.494 3.926C37.39.886 53.5.555 60.41 5.078c4.211-3.06 10.11-3.093 14.761-3.16h113.614c14.147-.346 18.83 4.922 19.203 12.04 0 0 .748 5.82-2.246 10.905.28 4.064-.094 9.701-3.466 14.229z" stroke="#221e1f" stroke-width="3" fill="#ec1b23"/><path d="M44.3 29.035a3.43 3.43 0 0 0 1.585-.966c.875-.832 1.584-2.263 2.054-4.126.473-1.729.607-3.027.371-3.958-.235-1.132-1.08-1.765-2.46-1.865-.37-.033-.675-.066-1.045-.033a2.868 2.868 0 0 0-.505.133V7.574c7.11-.865 13.413 1.531 15.47 6.688 3.067-4.459 7.886-6.688 14.492-6.62h8.696c2.359 0 3.64 1.962 3.201 4.39l-.81 3.96c-.64 2.395-1.986 2.794-4.854 2.794l-4.884.032c-6.135 0-6.033 1.667-6.843 4.76-.338 1.23-.403 2.395-.37 3.526-.033 1.164 1.011 1.364 1.818 1.397 1.62.134 4.08.068 7.314-.033 1.147 0 2.36.234 2.597.5l11.525-18.265c1.316-2.097 1.822-3.062 4.415-3.062h5.428c2.054.067 3.099.833 3.74 3.427l4.18 20.33-2.293-19.232c-.404-2.328.811-4.492 3.203-4.525h5.358c2.123-.032 3.405 1.198 3.775 3.693l.606 6.588 3.474-7.155c1.01-2.094 2.325-3.126 3.977-3.126h5.66c2.157 0 3.37 1.165 3.605 3.493l.44 6.755 3.572-7.054c.944-2.13 2.09-3.194 4.719-3.194h4.213c1.954 0 3.167.965 3.608 2.895 3.235-2.296 6.604-2.895 11.794-2.895h7.18c.841 0 1.618.267 2.326.766.606-.5 1.448-.766 2.526-.766h15.402c9.067 0 12.37 9.251 5.696 16.469 2.563 5.722-.1 15.737-13.379 15.436h-13.38c-1.146 0-1.92-.264-2.326-.765-.541.534-1.383.8-2.596.765h-8.458c-8.698-.032-12.976-4.223-12.875-12.61l-5.022 9.384c-1.047 2.13-1.854 3.194-3.54 3.226h-6.2c-2.192-.032-3.404-1.129-3.642-3.293l-.472-6.021-3.134 6.22c-.81 2.03-2.19 3.094-4.211 3.094h-5.36c-1.886 0-3.068-.73-3.54-2.228-.505 1.498-1.684 2.228-3.538 2.228h-5.663c-2.088 0-3.335-.963-3.773-2.96l-.574-2.928h-5.055l-1.989 2.962c-1.55 2.429-1.853 2.926-4.55 2.926h-18.4c-5.125-.098-8.529-2.228-10.213-6.353-2.662 3.626-6.505 5.822-12.066 6.487V29.035zm-.54.1c.203 0 .37-.067.54-.1V39.68c-.472.033-.978.1-1.483.132-5.123.335-8.998-.964-11.662-3.427-.404 2.097-1.752 3.13-4.113 3.161H19.09c-7.483 0-12-4.756-10.448-12.11l3.404-16.602c.472-2.194 1.853-3.26 4.079-3.193h4.818c1.887 0 3.708 1.696 3.269 3.892l-3.47 16.836 6.942.067c.235-11.08 4.651-18.032 13.415-20.263a28.729 28.729 0 0 1 3.201-.599V18.22c-.709.235-1.314.633-1.855 1.233-.672.732-1.28 2.062-1.753 3.826-.571 1.928-.639 3.394-.336 4.357.336.966 1.181 1.464 2.426 1.564.338.034.64.034.979-.065z" fill="#221e1f"/><path d="M15.483 10.967h5.426l-3 14.274c-.37 1.763-.573 2.962-.573 3.526-.068 1.199.305 1.93 1.249 2.397.843.398 2.426.666 4.785.666h5.259l-.945 4.458h-5.83c-2.73.097-4.686-.101-5.899-.465-2.662-.734-4.045-2.498-4.247-5.292 0-1.032.202-2.793.742-5.29l3.033-14.274zM78.476 31.83l-.946 4.458H68.6c-1.685 0-3-.101-3.843-.2-3.033-.632-4.919-2.396-5.66-5.29-.473-1.862-.372-4.259.2-7.055.743-3.393 2.056-6.187 3.844-8.316 1.313-1.565 2.83-2.697 4.615-3.328 1.788-.765 3.945-1.132 6.472-1.132h8.762l-.943 4.56h-8.088c-2.459 0-4.415.63-5.83 1.93-1.115 1.03-2.057 2.994-2.631 5.72-.84 3.728-.572 6.223.574 7.455.942.731 2.427 1.198 4.584 1.198h7.82zm37.612-20.863l1.685 19.098 9.502-19.098h6.102l1.315 19.098 9.84-19.098h5.562l-13.615 25.32h-6.303l-1.382-18.266-9.236 18.267h-6.2l-2.931-25.32h5.66zm56.386 0l-.946 4.56h-7.144c-1.887 0-3.301.1-4.145.365-.942.266-1.685.732-2.425 1.497a7.238 7.238 0 0 0-1.148 1.464c-.167.566-.572 1.396-.841 2.594h14.39l-.943 4.526h-14.493c-.27 2.13.1 3.726.943 4.558.944.832 2.731 1.299 5.36 1.299h6.977l-1.046 4.458h-7.043c-1.988 0-3.675-.101-5.09-.3-2.258-.366-3.84-1.364-4.886-3.063-1.415-2.293-1.685-5.455-.845-9.447.945-4.324 3-7.785 6.304-10.28 1.114-.832 2.258-1.397 3.37-1.665 1.147-.365 2.63-.566 4.414-.566h9.237zm-77.08 15.006h3.675l-1.787-8.884-1.888 3.062v-9.083l6.404-.1 5.155 25.32h-6.37l-1.245-5.857h-3.944v-4.458zm0 0v4.458h-5.83l-3.742 5.857H79.42l15.975-25.22v9.083l-3.673 5.822h3.673zm90.73-4.526h1.381c.777 0 1.316-.065 1.684-.166.405-.097.776-.198 1.148-.464.943-.666 1.517-1.497 1.786-2.496.169-1.033 0-1.764-.674-2.23-.474-.398-1.315-.564-2.629-.564h-2.696v-4.56h5.256c2.259 0 3.844.3 4.788.766 1.045.633 1.787 1.664 2.056 2.961.303.933.303 1.93 0 2.96-.269 1.299-.846 2.497-1.787 3.728a8.558 8.558 0 0 1-3.204 2.262c2.26 1.132 3.034 3.16 2.463 5.956-.374 1.663-1.044 3.062-2.057 4.192-.944.897-1.989 1.664-3.135 2.03-1.011.267-2.491.466-4.38.466V31.83c.37-.102.64-.102.81-.102.47-.1.773-.265 1.144-.564.946-.532 1.516-1.365 1.788-2.496.2-1.032 0-1.763-.677-2.229-.47-.366-1.313-.566-2.527-.566h-.538v-4.426zm-.035 0h.035v4.426h-7.078l-1.214 5.957h8.292v4.458h-14.797l5.461-25.32h9.336v4.559h-4.822l-1.21 5.92h5.997zM44.199 31.995c1.483-.267 2.697-.932 3.605-1.83 1.418-1.398 2.46-3.626 3.034-6.52.54-2.628.54-4.593 0-5.99-.673-1.663-2.258-2.495-4.818-2.495-.642 0-1.182 0-1.821.066v-4.259c.91-.099 1.753-.099 2.764-.165 2.56 0 4.717.464 6.504 1.297 2.055 1.098 3.268 2.761 3.673 5.19.371 1.964.169 4.158-.405 6.754-.469 2.595-1.38 4.824-2.694 6.654-1.619 2.329-3.608 3.927-6.136 4.76-1.112.464-2.325.73-3.706.895v-4.357zm-.033.033c0-.033 0-.033.033-.033v4.357l-.033.033c-.777.067-1.518.067-2.36.067-2.831 0-5.259-.53-7.145-1.562-1.619-.932-2.732-2.33-3.302-4.193-.473-1.93-.473-4.258.1-6.954 1.046-4.79 3-8.216 5.932-10.248 1.786-1.33 4.045-2.161 6.775-2.528h.033v4.259c-.033 0-.033 0-.033.034-1.618.367-3.033 1.099-4.045 2.296-1.146 1.23-1.987 3.26-2.561 6.023-.642 2.96-.541 5.188.2 6.586.744 1.397 2.36 2.03 4.618 2.03.642 0 1.213 0 1.788-.167z" fill="#fff"/></svg>