<svg width="158" height="54" viewBox="0 0 158 54" xmlns="http://www.w3.org/2000/svg"><title>logoGetup</title><path d="M87.344 37.488l-1.842-4.729a1.17 1.17 0 0 0-.713-.667 1.142 1.142 0 0 0-.978.12c-.537.33-1.961 1.108-3.574 1.108-1.57 0-2.852-.275-2.852-3.696V14.642h7.098c.623 0 1.129-.515 1.129-1.129V8.324c0-.625-.506-1.129-1.13-1.129h-7.096V1.842a1.15 1.15 0 0 0-1.152-1.15H72.22c-.482 0-.91.296-1.076.745-1.281 3.466-3.168 6.132-6.733 6.438a1.14 1.14 0 0 0-1.041.987l.01 4.475a1.15 1.15 0 0 0 1.14 1.305h3.225v15.311c0 2.217 0 4.978 1.348 7.238 1.625 2.697 4.686 4.004 9.357 4.004 3.104 0 6.438-.922 8.489-2.348.427-.306.603-.865.406-1.359m-57.068-3.761V9.684c0-.46-.273-.877-.7-1.053-3.85-1.622-8.84-2.356-11.859-2.356C6.96 6.275.545 12.8.545 23.735c0 7.49 3.476 15.498 13.238 15.498 2.685 0 5.1-.703 7.041-2.02v.813c0 5.594-1.744 8.269-6 8.269-1.723 0-2.949-.164-3.959-.537-.57-.218-.68-.328-.68-1.14v-1.262c0-.328-.133-.637-.373-.844a1.156 1.156 0 0 0-.877-.306l-5.857.009a1.157 1.157 0 0 0-1.055 1.14v7.339c0 .426.242.834.637 1.02 2.83 1.413 8.224 2.15 12.1 2.15 9.705 0 14.828-4.903 15.386-14.643.11-1.82.143-3.685.131-5.494M17.041 13.909c1.336 0 2.664.152 3.783.438v12.327c0 3.367-2.578 4.869-5.133 4.869-3.685 0-5.266-2.554-5.266-8.543 0-3.4.868-9.091 6.616-9.091M60.9 36.063l-2.348-4.96a1.13 1.13 0 0 0-.744-.625 1.178 1.178 0 0 0-.967.176c-1.513 1.064-3.892 2.479-7.095 2.479-3.598 0-5.715-1.667-6.297-4.967 14.37-.471 17.44-6.855 17.44-12.219 0-5.965-4.3-9.673-11.208-9.673-11.308 0-16.377 9.137-16.377 18.195 0 10.748 5.584 16.672 15.707 16.672 5.801 0 10.123-2.435 11.604-3.72.383-.338.504-.888.285-1.358M43.175 20.706c.45-3.431 2.227-6.932 6.077-6.932 1.69 0 2.544.78 2.544 2.295 0 3.596-5.296 4.451-8.62 4.637M145.387 6.274c-3.621 0-6.592 1.295-8.588 2.95v-.888c0-.625-.517-1.141-1.154-1.141h-9.848c-.625 0-1.131.504-1.131 1.13v5.189c0 .613.506 1.129 1.13 1.129h2.415v30.381c0 .14-.011.26-.011.36v.21h-2.403c-.625 0-1.131.504-1.131 1.119v5.197c0 .614.506 1.13 1.13 1.13h14.215c.583 0 1.054-.438 1.118-1v-.03c.012-.033.012-.067.012-.1v-5.197c0-.615-.504-1.12-1.13-1.12h-2.413v-5.417c1.689.68 3.676 1.084 5.439 1.084 9.182 0 14.655-6.832 14.655-18.26 0-13.83-6.692-16.726-12.305-16.726m-3.521 26.859c-1.198 0-2.897-.317-4.268-1.041V18.645c0-2.281 2.283-4.121 5.078-4.121 1.252 0 5.068 0 5.068 9.09 0 2.863-.57 9.519-5.878 9.519m-17.386.889c0-.625-.504-1.13-1.129-1.13h-2.39V8.336a1.15 1.15 0 0 0-1.153-1.142h-7.358c-.615 0-1.132.505-1.132 1.13v19.951c0 2.446-1.675 4.925-5.438 4.925-2.61 0-3.411-1.263-3.411-5.417V8.335c0-.626-.515-1.14-1.152-1.14H90.438a1.13 1.13 0 0 0-1.132 1.13v5.308c0 .034.013.068.023.1v.01c.01.066.033.12.053.175l.024.057c.021.042.045.087.064.119l.046.075a.513.513 0 0 1 .075.088c.025.024.044.045.077.079a.318.318 0 0 1 .066.053c.034.024.067.056.1.078.022.01.042.021.054.021a.324.324 0 0 0 .143.067c.01.01.033.01.054.021.044.01.089.034.144.045.044.01.088.01.133.01.02 0 .053.011.076.011h2.39v14.741c0 9.72 5.822 11.759 10.715 11.759 3.367 0 6.492-1.099 8.83-3.027v1.074c0 .636.513 1.15 1.15 1.15h9.818c.076 0 .154-.01.23-.022l.097-.03c.035-.013.066-.013.1-.035.044-.01.076-.032.108-.042.024-.024.055-.034.08-.047.032-.021.063-.04.087-.065a.288.288 0 0 0 .087-.075.118.118 0 0 0 .053-.055c.033-.033.068-.066.09-.11l.032-.056a.544.544 0 0 0 .075-.132l.025-.042a.91.91 0 0 0 .055-.188c.009-.042.02-.075.02-.108V34.02z" fill="#FF4C4D" fill-rule="evenodd"/></svg>