<svg viewBox="0 0 247 56" style="background-color:#ffffff00" xmlns="http://www.w3.org/2000/svg" width="247" height="56"><path d="M237.916 46.577c-4.623 5.729-12.224 7.123-19.157 7.48h-35.122c-5.156-.198-9.794-.396-13.994-4.518-.477 2.733-4.124 4.478-7.176 4.518H77.318c-3.726.04-9.357-.671-12.488-4.002-3.606 3.527-16.848 4.002-19.346 4.042H25.98c-8.919-.08-16.211-1.705-21.248-9.75-2.496-4.758-2.694-8.961-1.82-14.113C4.1 23.178 7.47 9.144 7.47 9.144c1.704-4.6 5.667-6.897 11.97-6.858h10.267c6.462 0 6.78 3.37 6.462 4.678C43.979 1.056 62.928.66 71.055 6.05c4.953-3.646 11.891-3.686 17.362-3.765h133.632c16.638-.413 22.146 5.864 22.586 14.344 0 0 .88 6.935-2.642 12.994.328 4.843-.111 11.559-4.077 16.953z" stroke="#221e1f" stroke-width="3" fill="#ec1b23"/><path d="M52.105 34.595a4.025 4.025 0 0 0 1.865-1.152c1.028-.99 1.862-2.695 2.416-4.915.555-2.06.714-3.607.436-4.715-.277-1.35-1.27-2.104-2.893-2.223-.435-.04-.794-.08-1.23-.04-.197.04-.396.08-.593.159V9.024c8.363-1.03 15.776 1.825 18.196 7.97 3.606-5.313 9.274-7.97 17.045-7.89h10.227c2.775 0 4.282 2.34 3.766 5.232l-.952 4.719c-.754 2.853-2.337 3.328-5.71 3.328l-5.745.039c-7.216 0-7.096 1.985-8.05 5.672-.397 1.466-.473 2.852-.433 4.2-.04 1.387 1.189 1.626 2.138 1.665 1.905.16 4.798.081 8.602-.04 1.35 0 2.776.28 3.054.597L107.8 12.752c1.548-2.498 2.143-3.648 5.193-3.648h6.384c2.417.08 3.645.993 4.4 4.084l4.916 24.222-2.697-22.915c-.475-2.773.954-5.351 3.767-5.39h6.302c2.498-.04 4.005 1.427 4.44 4.399l.713 7.85 4.087-8.525c1.186-2.495 2.734-3.725 4.676-3.725h6.658c2.538 0 3.964 1.388 4.24 4.163l.519 8.047 4.2-8.405c1.111-2.537 2.459-3.805 5.55-3.805h4.956c2.298 0 3.725 1.15 4.244 3.45 3.804-2.737 7.767-3.45 13.872-3.45h8.444c.99 0 1.903.318 2.736.913.713-.595 1.703-.912 2.971-.912h18.116c10.665 0 14.55 11.022 6.7 19.622 3.014 6.818-.119 18.75-15.736 18.392h-15.737c-1.349 0-2.26-.315-2.737-.912-.636.637-1.626.953-3.053.912h-9.948c-10.23-.038-15.263-5.032-15.144-15.024l-5.907 11.18c-1.232 2.538-2.18 3.806-4.162 3.844h-7.293c-2.58-.038-4.004-1.346-4.285-3.924l-.554-7.175-3.687 7.413c-.952 2.418-2.575 3.686-4.953 3.686h-6.305c-2.217 0-3.608-.87-4.163-2.655-.593 1.785-1.981 2.655-4.162 2.655h-6.66c-2.456 0-3.923-1.148-4.437-3.527l-.676-3.49h-5.945l-2.34 3.53c-1.822 2.894-2.179 3.487-5.352 3.487H78.31c-6.028-.117-10.03-2.655-12.012-7.57-3.131 4.32-7.651 6.937-14.191 7.73V34.594zm-.634.119c.238 0 .435-.08.635-.12v12.684c-.556.04-1.15.119-1.746.157-6.024.4-10.583-1.148-13.715-4.083-.476 2.499-2.061 3.73-4.838 3.767h-9.353c-8.802 0-14.114-5.667-12.29-14.429l4.004-19.78c.556-2.615 2.18-3.886 4.798-3.806h5.667c2.22 0 4.361 2.021 3.845 4.637l-4.082 20.06 8.166.08c.276-13.202 5.47-21.485 15.778-24.143a33.434 33.434 0 0 1 3.765-.714V21.71c-.833.28-1.545.754-2.181 1.469-.791.872-1.506 2.457-2.063 4.558-.671 2.298-.75 4.044-.395 5.192.395 1.151 1.39 1.745 2.854 1.863.398.041.752.041 1.15-.077z" fill="#221e1f"/><path d="M18.21 13.067h6.383l-3.528 17.007c-.435 2.1-.674 3.53-.674 4.201-.08 1.43.358 2.3 1.468 2.857.992.474 2.854.793 5.628.793h6.186l-1.111 5.311h-6.858c-3.21.117-5.51-.12-6.937-.553-3.132-.875-4.758-2.976-4.996-6.306 0-1.23.238-3.327.873-6.303l3.567-17.007zm74.093 24.858l-1.113 5.311H80.688c-1.983 0-3.53-.12-4.521-.237-3.567-.753-5.786-2.855-6.658-6.304-.556-2.218-.438-5.074.236-8.405.873-4.043 2.418-7.372 4.52-9.91 1.546-1.863 3.33-3.212 5.43-3.964 2.102-.912 4.639-1.349 7.612-1.349h10.305l-1.11 5.433H86.99c-2.892 0-5.193.752-6.858 2.299-1.31 1.227-2.42 3.568-3.094 6.817-.988 4.44-.673 7.414.675 8.882 1.108.871 2.855 1.427 5.392 1.427h9.198zm44.238-24.858l1.982 22.755L149.7 13.067h7.177l1.547 22.755 11.573-22.755h6.542l-16.014 30.17h-7.414l-1.625-21.765-10.863 21.764h-7.292l-3.448-30.169h6.658zm66.321 0L201.75 18.5h-8.403c-2.22 0-3.883.12-4.875.436-1.109.316-1.982.872-2.853 1.783a8.608 8.608 0 0 0-1.35 1.744c-.197.675-.672 1.664-.99 3.09h16.926l-1.11 5.393H182.05c-.318 2.538.118 4.44 1.11 5.431 1.11.992 3.211 1.548 6.304 1.548h8.206l-1.23 5.311h-8.285c-2.339 0-4.322-.12-5.987-.357-2.655-.436-4.517-1.625-5.747-3.65-1.664-2.731-1.981-6.498-.993-11.255 1.111-5.153 3.529-9.276 7.415-12.25 1.31-.99 2.655-1.664 3.964-1.983 1.348-.434 3.091-.674 5.191-.674h10.864zm-90.66 17.879h4.322l-2.102-10.585-2.22 3.649V13.187l7.532-.12 6.063 30.17h-7.491l-1.465-6.98h-4.639v-5.31zm0 0v5.312h-6.858l-4.4 6.978h-7.532l18.79-30.048V24.01l-4.321 6.936h4.321zm106.715-5.392h1.625c.913 0 1.547-.077 1.98-.198.476-.116.913-.236 1.351-.553 1.108-.793 1.783-1.784 2.1-2.974.199-1.23 0-2.102-.792-2.657-.558-.474-1.547-.672-3.092-.672h-3.172v-5.433h6.183c2.656 0 4.521.357 5.631.912 1.229.755 2.102 1.983 2.418 3.529.357 1.111.357 2.3 0 3.527-.316 1.547-.995 2.975-2.101 4.442a10.068 10.068 0 0 1-3.77 2.695c2.66 1.348 3.57 3.765 2.898 7.096-.44 1.981-1.229 3.648-2.42 4.995-1.11 1.069-2.339 1.983-3.687 2.42-1.19.316-2.93.553-5.152.553v-5.311c.435-.121.753-.121.954-.121.55-.119.908-.317 1.345-.672 1.112-.634 1.782-1.627 2.102-2.975.237-1.23 0-2.1-.796-2.655-.552-.437-1.543-.675-2.972-.675h-.633v-5.273zm-.041 0h.041v5.273h-8.325l-1.428 7.098h9.753v5.311h-17.403l6.422-30.169h10.981V18.5h-5.671l-1.424 7.054h7.054zM51.986 38.122c1.745-.318 3.172-1.111 4.24-2.18 1.669-1.667 2.894-4.32 3.569-7.77.635-3.131.635-5.472 0-7.137-.791-1.98-2.655-2.973-5.666-2.973-.756 0-1.39 0-2.143.08v-5.075c1.07-.118 2.062-.118 3.251-.197 3.012 0 5.548.554 7.65 1.546 2.418 1.309 3.844 3.29 4.321 6.183.436 2.34.198 4.955-.477 8.047-.551 3.093-1.624 5.748-3.168 7.93-1.905 2.774-4.244 4.678-7.217 5.67-1.309.554-2.735.87-4.36 1.067v-5.19zm-.039.04c0-.04 0-.04.04-.04v5.191l-.04.04c-.913.08-1.785.08-2.774.08-3.331 0-6.187-.633-8.405-1.862-1.904-1.111-3.213-2.776-3.884-4.996-.556-2.3-.556-5.073.118-8.285 1.23-5.708 3.527-9.79 6.976-12.21 2.102-1.585 4.758-2.576 7.97-3.013h.038v5.075c-.039 0-.039 0-.039.04-1.903.437-3.567 1.31-4.758 2.736-1.347 1.465-2.337 3.885-3.011 7.176-.755 3.527-.637 6.181.236 7.847.874 1.664 2.776 2.418 5.43 2.418.756 0 1.428 0 2.103-.198z" fill="#fff"/></svg>