<svg viewBox="0 0 184 60" style="background-color:#ffffff00" xmlns="http://www.w3.org/2000/svg" width="184" height="60"><path d="M39.9 25.743L15.523 1.452l-4.928 4.91 9.147 9.115L0 35.133l24.377 24.291 4.928-4.91-9.132-9.115L39.9 25.743zM11.026 36.285l14.799-14.746 3.049 3.038-14.799 14.746-3.049-3.038zm47.276-28.71v7.396h8.07v4.281h-8.07v16.664c0 3.836 1.093 6 4.22 6 1.54 0 2.433-.138 3.264-.384l.277 4.282c-1.093.383-2.818.767-5.004.767-2.634 0-4.744-.89-6.083-2.363-1.54-1.719-2.187-4.466-2.187-8.118V19.252h-4.805v-4.281h4.805V9.23l5.513-1.656zm38.406 22.603c0 11.43-8.008 16.418-15.445 16.418-8.332 0-14.86-6.137-14.86-15.897 0-10.28 6.852-16.342 15.383-16.342 8.901-.015 14.922 6.43 14.922 15.82zm-24.531.322c0 6.767 3.85 11.877 9.363 11.877 5.374 0 9.424-5.05 9.424-12 0-5.233-2.633-11.816-9.286-11.816-6.621 0-9.501 6.123-9.501 11.939zm27.349-5.433c0-3.958-.123-7.15-.262-10.096h4.99l.323 5.294h.123c2.233-3.775 5.96-5.939 11.026-5.939 7.561 0 13.198 6.322 13.198 15.651 0 11.11-6.853 16.604-14.152 16.604-4.097 0-7.685-1.796-9.548-4.85h-.123V58.52h-5.575V25.067zm5.575 8.241c0 .828.061 1.595.261 2.301 1.032 3.898 4.42 6.583 8.455 6.583 5.96 0 9.424-4.85 9.424-11.938 0-6.138-3.265-11.432-9.224-11.432-3.85 0-7.5 2.685-8.531 6.89-.185.706-.385 1.535-.385 2.224v5.372zm34.587-25.733v7.396h8.069v4.281h-8.07v16.664c0 3.836 1.094 6 4.235 6 1.54 0 2.434-.138 3.265-.384l.262 4.282c-1.094.383-2.818.767-5.005.767-2.618 0-4.743-.89-6.082-2.363-1.54-1.719-2.187-4.466-2.187-8.118V19.252h-4.805v-4.281h4.805V9.23l5.513-1.656zm33.755 30.903c0 2.686.123 5.294.447 7.412h-5.067l-.446-3.897h-.185c-1.725 2.424-5.067 4.603-9.486 4.603-6.283 0-9.486-4.404-9.486-8.885 0-7.472 6.668-11.554 18.648-11.492v-.645c0-2.486-.708-7.15-7.052-7.09-2.942 0-5.96.83-8.131 2.302l-1.279-3.774c2.557-1.597 6.345-2.686 10.257-2.686 9.486 0 11.795 6.445 11.795 12.583v11.57h-.015zm-5.451-8.362c-6.16-.123-13.136.95-13.136 6.967 0 3.697 2.433 5.37 5.251 5.37 4.096 0 6.73-2.562 7.623-5.17.2-.646.262-1.275.262-1.782v-5.385zM177.616.547h5.637v45.328h-5.637V.547z" fill="#37639f"/></svg>