<svg viewBox="0 0 126 59" style="background-color:#ffffff00" xmlns="http://www.w3.org/2000/svg" width="126" height="59"><path d="M4.597 49.342h-1.81v9.359H0V37.993h2.787v9.159h1.527l7.637-9.16h3.14l.029.072-8.345 9.8 8.938 10.765-.028.072h-3.38l-7.708-9.359zM19.76 58.7h-2.8V37.994h2.8V58.7zm55.221 0h-1.697v-9.529H61.587v9.53H59.89V37.993h1.697v9.728h11.697v-9.728h1.697V58.7zm18.628-8.66c0 2.673-.728 4.834-2.185 6.484C89.967 58.174 88.013 59 85.562 59c-2.414 0-4.34-.826-5.778-2.476-1.439-1.65-2.157-3.811-2.157-6.485v-3.37c0-2.665.716-4.827 2.15-6.486 1.433-1.66 3.356-2.49 5.77-2.49 2.451 0 4.408.83 5.87 2.49 1.461 1.66 2.192 3.821 2.192 6.486v3.37zm-1.684-3.4c0-2.238-.563-4.04-1.69-5.405-1.126-1.365-2.69-2.048-4.688-2.048-1.961 0-3.489.683-4.582 2.048-1.094 1.366-1.64 3.167-1.64 5.405v3.4c0 2.255.548 4.067 1.647 5.433 1.098 1.365 2.628 2.047 4.59 2.047 2.007 0 3.57-.68 4.688-2.041 1.117-1.36 1.675-3.174 1.675-5.44V46.64zm15.941 7.026c0-1.061-.42-1.94-1.258-2.63-.84-.693-2.263-1.343-4.272-1.95-2.197-.606-3.868-1.363-5.014-2.268-1.145-.905-1.718-2.136-1.718-3.691 0-1.584.641-2.885 1.924-3.904 1.281-1.019 2.918-1.53 4.907-1.53 2.093 0 3.776.577 5.05 1.729 1.272 1.152 1.89 2.615 1.852 4.388l-.028.084h-1.584c0-1.365-.493-2.497-1.478-3.398-.986-.9-2.255-1.351-3.812-1.351-1.603 0-2.86.38-3.769 1.145-.91.763-1.365 1.7-1.365 2.808 0 1.053.412 1.918 1.238 2.596.825.679 2.279 1.31 4.363 1.898 2.168.636 3.824 1.419 4.964 2.348 1.141.93 1.712 2.161 1.712 3.698 0 1.612-.668 2.908-2.001 3.89-1.335.98-3.016 1.472-5.043 1.472s-3.795-.52-5.304-1.558c-1.508-1.038-2.24-2.553-2.192-4.544l.029-.086h1.57c0 1.603.598 2.796 1.796 3.578 1.197.782 2.564 1.173 4.101 1.173 1.575 0 2.857-.362 3.847-1.088.99-.725 1.485-1.662 1.485-2.809zM126 39.443h-7.015v19.258h-1.683V39.443h-7.256v-1.45H126v1.45zm-71.775 8.904H49.14v2.19h4.667v4.665c-.349.437-.879.814-1.59 1.13-.713.318-1.677.477-2.893.477-1.584 0-2.886-.594-3.904-1.785-1.018-1.19-1.527-2.704-1.527-4.544v-4.295c0-1.82.48-3.324 1.442-4.51.962-1.184 2.23-1.777 3.805-1.777 1.49 0 2.64.42 3.451 1.26.81.838 1.216 1.889 1.216 3.15h2.673l.028-.086c.038-1.896-.607-3.458-1.937-4.686-1.33-1.228-3.14-1.842-5.43-1.842-2.368 0-4.3.792-5.8 2.375-1.499 1.584-2.249 3.632-2.249 6.144v4.267c0 2.513.779 4.561 2.334 6.145C44.981 58.207 46.947 59 49.323 59c1.933 0 3.505-.323 4.717-.967 1.21-.646 2.062-1.352 2.552-2.12v-6.228l-2.367-1.338zM35.913 37.993v15.773l-.085.028-9.914-15.801h-2.786V58.7h2.786V42.914l.084-.03 9.915 15.817H38.7V39.567l-2.786-1.574z" fill="#34265f"/><g fill="#ffcc04"><path d="M62.897 26.617h-.266c-5.22 0-9.294 1.65-10.784 2.337-.562.285-.693.504-.362 1.309.247.61.536.634 1.118.424.8-.308 4.619-1.849 10.3-1.898 5.679.05 9.5 1.59 10.293 1.898.59.21.883.186 1.135-.424.323-.805.195-1.024-.366-1.31-1.493-.686-5.572-2.336-10.782-2.336h-.286z"/><path d="M61.614 1.411c0 .787.63 1.415 1.403 1.415.776 0 1.403-.628 1.403-1.415C64.42.641 63.793 0 63.017 0c-.772 0-1.403.64-1.403 1.411zM45.833 9.337a1.111 1.111 0 0 0-2.22 0c0 .621.494 1.124 1.11 1.124.612 0 1.11-.503 1.11-1.124zm8.008-.37c0-.613-.502-1.107-1.113-1.107a1.11 1.11 0 0 0-1.112 1.108c0 .62.5 1.12 1.112 1.12.611 0 1.112-.5 1.112-1.12zm26.324.37c0 .621.497 1.124 1.116 1.124.61 0 1.107-.503 1.107-1.124 0-.608-.498-1.11-1.107-1.11-.62 0-1.116.502-1.116 1.11zm-8.003-.37c0 .62.488 1.12 1.11 1.12.61 0 1.1-.5 1.1-1.12a1.1 1.1 0 0 0-1.1-1.107c-.622 0-1.11.494-1.11 1.108zm-9.17-5.397l-.068.006c-.542.053-.577.915-.9 3.851-.358 3.182-1.162 6.577-1.97 8.43-.72 1.643-1.824 2.07-3.2 1.556-1.736-.655-2.765-5.085-2.896-5.456-.126-.373-.28-1.154-.742-1.059-.528.104-.367.491-.06 3.59.312 3.11-.124 4.236-1.121 4.466-.454.111-1.224.075-2.087-.87-.964-1.079-3.094-5.222-3.502-6.003-.177-.349-.49-.96-.927-.813-.47.152-.06 1.238-.06 1.238l4.993 13.958c.426 1.124.861 1.06 1.594.624.745-.438 5.178-2.172 10.65-2.172h.607c5.471 0 9.91 1.734 10.646 2.172.743.436 1.174.5 1.592-.624l4.993-13.958s.413-1.086-.065-1.238c-.429-.146-.74.464-.924.813-.406.781-2.53 4.924-3.498 6.003-.86.945-1.624.981-2.08.87-.991-.23-1.436-1.355-1.126-4.466.306-3.099.473-3.486-.065-3.59-.462-.095-.61.687-.74 1.059-.123.37-1.157 4.8-2.894 5.456-1.38.513-2.489.087-3.203-1.555-.803-1.854-1.602-5.249-1.96-8.43-.331-2.937-.368-3.8-.91-3.852l-.052-.006h-.025z"/></g></svg>